<?xml version="1.0" encoding="UTF-8"?>
<svg id="Layer_1" xmlns="http://www.w3.org/2000/svg" version="1.1" viewBox="0 0 1664 686">
  <!-- Generator: Adobe Illustrator 30.2.1, SVG Export Plug-In . SVG Version: 2.1.1 Build 1)  -->
  <defs>
    <style>
      .st0 {
        fill: #606161;
      }

      .st1 {
        fill: #094448;
      }

      .st2 {
        fill: #e35d32;
      }

      .st3 {
        fill: #ec272f;
      }

      .st4 {
        fill: #0b454b;
      }

      .st5 {
        fill: #fff;
      }

      .st6 {
        fill: #152f52;
      }

      .st7 {
        display: none;
      }
    </style>
  </defs>
  <g class="st7">
    <g>
      <path class="st4" d="M-3721.68,302.85c1.48,3.98,3.53,7.83,6.16,11.52,2.63,3.7,5.91,7.04,9.86,10.03s8.71,5.34,14.3,7.04c5.58,1.71,12.16,2.56,19.72,2.56,15.28,0,27.15-4.23,35.61-12.7,8.46-8.46,12.61-19.45,12.45-32.97-.17-12.94-4.23-23.12-12.2-30.52-7.97-7.4-18.85-11.1-32.66-11.1-8.87,0-16.51,1.35-22.92,4.05-6.41,2.7-11.63,5.84-15.65,9.39-4.03,3.56-6.86,6.83-8.5,9.82l-60.88-19.21,28.84-150.24h182.88v55.49h-121.02l-10.11,53.14c.82-.99,3.41-2.56,7.76-4.7,4.35-2.13,10.11-4.09,17.25-5.87,7.15-1.78,15.24-2.67,24.28-2.67,16.1,0,31.55,3.06,46.34,9.18,14.79,6.12,26.95,15.72,36.48,28.81,9.53,13.09,14.3,30.02,14.3,50.79s-5.14,38.88-15.4,54.31c-10.27,15.44-24.36,27.35-42.27,35.75-17.91,8.39-38.45,12.59-61.62,12.59-17.58,0-32.99-1.81-46.21-5.44-13.23-3.63-24.52-8.43-33.89-14.4-9.37-5.98-16.97-12.48-22.8-19.53-5.83-7.04-10.23-13.98-13.19-20.81l63.1-24.33Z"/>
      <path class="st4" d="M-3197.37,302.85c1.48,3.98,3.53,7.83,6.16,11.52,2.63,3.7,5.91,7.04,9.86,10.03,3.94,2.99,8.71,5.34,14.3,7.04,5.58,1.71,12.16,2.56,19.72,2.56,15.28,0,27.15-4.23,35.61-12.7,8.46-8.46,12.61-19.45,12.45-32.97-.17-12.94-4.23-23.12-12.2-30.52-7.97-7.4-18.85-11.1-32.66-11.1-8.87,0-16.51,1.35-22.92,4.05-6.41,2.7-11.63,5.84-15.65,9.39-4.03,3.56-6.86,6.83-8.5,9.82l-60.88-19.21,28.84-150.24h182.88v55.49h-121.02l-10.11,53.14c.82-.99,3.41-2.56,7.76-4.7,4.35-2.13,10.11-4.09,17.25-5.87,7.15-1.78,15.24-2.67,24.28-2.67,16.1,0,31.55,3.06,46.34,9.18,14.79,6.12,26.95,15.72,36.48,28.81,9.53,13.09,14.29,30.02,14.29,50.79s-5.14,38.88-15.4,54.31c-10.27,15.44-24.36,27.35-42.27,35.75-17.91,8.39-38.45,12.59-61.62,12.59-17.58,0-32.99-1.81-46.21-5.44-13.23-3.63-24.52-8.43-33.89-14.4-9.37-5.98-16.97-12.48-22.8-19.53-5.83-7.04-10.23-13.98-13.19-20.81l63.1-24.33Z"/>
      <path class="st4" d="M-2997.32,244.15c0-24.04,3.2-45.04,9.59-63,6.39-17.96,15.13-32.92,26.23-44.87,11.09-11.95,23.73-20.89,37.91-26.84,14.18-5.94,29.05-8.91,44.63-8.91s30.45,2.97,44.63,8.91c14.18,5.94,26.78,14.89,37.8,26.84,11.02,11.95,19.69,26.91,26.01,44.87,6.32,17.96,9.48,38.97,9.48,63,0,25.58-3.16,47.46-9.48,65.63-6.32,18.17-14.99,32.95-26.01,44.34-11.02,11.39-23.62,19.78-37.8,25.16-14.18,5.38-29.06,8.07-44.63,8.07s-30.45-2.69-44.63-8.07c-14.18-5.38-26.82-13.77-37.91-25.16-11.09-11.39-19.83-26.17-26.23-44.34-6.39-18.17-9.59-40.05-9.59-65.63ZM-2931.2,244.15c0,19.99,2.13,36.48,6.39,49.48,4.26,13,10.28,22.68,18.07,29.04,7.79,6.36,17.04,9.54,27.77,9.54s19.95-3.18,27.66-9.54c7.71-6.36,13.66-16.07,17.85-29.14,4.19-13.07,6.28-29.53,6.28-49.38,0-18.73-2.09-34.66-6.28-47.8-4.19-13.14-10.14-23.2-17.85-30.19-7.71-6.99-16.94-10.48-27.66-10.48s-19.98,3.5-27.77,10.48c-7.79,6.99-13.81,17.05-18.07,30.19-4.26,13.14-6.39,29.07-6.39,47.8Z"/>
      <g>
        <polygon class="st1" points="-3494.92 387.35 -3417.48 387.35 -3417.04 387.35 -3417.04 358.05 -3494.92 358.05 -3494.92 387.35"/>
        <path class="st1" d="M-3480.68,339.95v9.91h51.18v-34.91c0-2.59-.89-4.74-2.23-6.9l-39.61-48.7-.45-.43c-.45,0-.89.43-2.23,1.29l-9.79,7.33c-1.34.86-2.23,2.15-2.23,3.45,0,.43,0,1.29.45,1.72l14.69,17.24c1.78,1.72,1.34,4.31-.45,6.03-1.78,1.72-4.45,1.29-6.23-.43l-26.26-29.31c-.45-.86-.89-2.15-.89-3.02v-56.02c0-4.31-4.01-8.19-8.46-8.19s-8.46,3.88-8.46,8.19v68.95c0,.86.45,2.15.89,3.02l35.61,47.41c2.67,3.88,4.45,8.62,4.45,13.36Z"/>
        <rect class="st1" x="-3389.67" y="358.05" width="77.44" height="29.31"/>
        <path class="st1" d="M-3293.98,199.03c-4.45,0-8.46,3.88-8.46,8.19v56.02c0,1.29,0,2.15-.89,3.02l-26.26,29.31c-1.78,1.72-4.45,2.15-6.23.43s-2.23-4.31-.45-6.03l14.69-17.24c.45-.43.45-1.29.45-1.72-.45-1.29-1.34-2.59-2.23-3.45l-9.79-7.33c-1.34-.86-1.78-1.29-2.23-1.29l-40.06,49.13c-1.34,2.15-2.23,4.31-2.23,6.9v34.91h51.18v-9.91c0-4.74,1.33-9.48,4.01-13.36l36.05-47.84c.45-.43.89-1.72.89-2.59h0v-68.95c0-4.31-4.01-8.19-8.46-8.19Z"/>
      </g>
      <path class="st2" d="M-3403.37,140.27c6.5-7.5,12.32-14.97,19.15-21.61,8.75-8.51,19.09-14.2,31.16-16.87,27.27-6.02,50.07,10.9,52.22,38.5,1.28,16.44-3.88,31.14-12.29,45.01-11.24,18.52-25.32,35.11-38.37,52.39-16.97,22.48-34.17,44.8-51.25,67.16-1.87.16-2.41-1.29-3.17-2.29-26.49-34.8-53.06-69.55-79.37-104.48-10.16-13.48-18.26-27.99-20.53-44.93-1.27-9.47-.26-18.68,3.33-27.55,8.04-19.85,27.94-29.04,50.34-23.44,13.73,3.44,24.83,10.8,33.96,21.13,4.83,5.46,9.58,10.98,14.82,16.98Z"/>
    </g>
  </g>
  <g class="st7">
    <path class="st0" d="M426.31,566.96v-72.03h43.89v8.12h-34.71v23.49h32.34v8.12h-32.34v24.17h35.14v8.12h-44.33Z"/>
    <path class="st0" d="M507.67,566.96l-26.49-72.03h9.67l15.23,42.73c.87,2.45,1.96,5.72,3.26,9.81,1.3,4.09,2.83,9.14,4.57,15.13h-1.79c1.74-6.16,3.25-11.24,4.54-15.25,1.29-4.01,2.35-7.24,3.19-9.69l14.84-42.73h9.77l-26.2,72.03h-10.59Z"/>
    <path class="st0" d="M557.22,566.96v-72.03h43.89v8.12h-34.71v23.49h32.34v8.12h-32.34v24.17h35.14v8.12h-44.33Z"/>
    <path class="st0" d="M618.27,566.96v-72.03h24.65c5.61,0,10.22.96,13.85,2.88,3.62,1.92,6.32,4.55,8.07,7.9,1.76,3.35,2.63,7.17,2.63,11.46s-.88,8.07-2.63,11.36c-1.76,3.29-4.44,5.86-8.05,7.71-3.61,1.85-8.22,2.78-13.83,2.78h-19.58v-8.17h19.14c3.8,0,6.86-.56,9.16-1.67,2.3-1.11,3.99-2.69,5.05-4.74,1.06-2.05,1.6-4.47,1.6-7.28s-.53-5.36-1.6-7.47c-1.06-2.11-2.76-3.75-5.08-4.93-2.32-1.18-5.4-1.76-9.23-1.76h-14.99v63.95h-9.18ZM659.65,566.96l-17.4-32.44h10.34l17.69,32.44h-10.63Z"/>
    <path class="st0" d="M701.46,566.96v-29.49l-26.49-42.54h10.63l14.26,23.25c1.61,2.61,3.04,5.1,4.28,7.47,1.24,2.37,2.52,5.36,3.84,8.97h-3.67c1.32-3.67,2.61-6.71,3.87-9.11,1.26-2.4,2.64-4.84,4.16-7.32l14.21-23.25h10.59l-26.49,42.54v29.49h-9.18Z"/>
    <path class="st0" d="M775.76,567.93c-6.16,0-11.64-1.49-16.46-4.47-4.82-2.98-8.61-7.23-11.38-12.76-2.77-5.53-4.16-12.09-4.16-19.7s1.38-14.22,4.16-19.75c2.77-5.53,6.57-9.79,11.38-12.79,4.82-3,10.3-4.5,16.46-4.5s11.63,1.5,16.44,4.5c4.8,3,8.58,7.26,11.34,12.79,2.75,5.53,4.13,12.11,4.13,19.75s-1.38,14.17-4.13,19.7c-2.76,5.53-6.53,9.78-11.34,12.76-4.8,2.98-10.28,4.47-16.44,4.47ZM775.76,559.42c4.29,0,8.16-1.09,11.63-3.26,3.46-2.18,6.22-5.38,8.27-9.62,2.05-4.24,3.07-9.42,3.07-15.54s-1.02-11.4-3.07-15.64c-2.05-4.24-4.8-7.44-8.27-9.62-3.46-2.17-7.34-3.26-11.63-3.26s-8.22,1.1-11.7,3.29c-3.48,2.19-6.24,5.41-8.29,9.64-2.05,4.24-3.07,9.43-3.07,15.59s1.02,11.3,3.07,15.52c2.05,4.22,4.81,7.43,8.29,9.62,3.48,2.19,7.38,3.29,11.7,3.29Z"/>
    <path class="st0" d="M823.81,566.96v-72.03h10.83l29.29,46.07c.77,1.19,1.71,2.72,2.8,4.59,1.09,1.87,2.28,3.98,3.55,6.33,1.27,2.35,2.52,4.87,3.75,7.54h-1.3c-.29-2.77-.5-5.42-.63-7.95-.13-2.53-.21-4.86-.24-6.99-.03-2.13-.05-3.93-.05-5.41v-44.18h9.18v72.03h-10.92l-26.1-40.99c-1.19-1.9-2.39-3.86-3.6-5.87-1.21-2.01-2.59-4.4-4.13-7.15-1.55-2.76-3.46-6.16-5.75-10.22h1.69c.16,3.58.31,6.88.43,9.91.13,3.03.23,5.67.31,7.93.08,2.26.12,4.03.12,5.32v41.09h-9.23Z"/>
    <path class="st0" d="M899.95,566.96v-72.03h43.89v8.12h-34.71v23.49h32.34v8.12h-32.34v24.17h35.14v8.12h-44.33Z"/>
    <path class="st0" d="M1002.28,566.96l-19.63-72.03h9.38l11.41,44.18c.61,2.35,1.19,4.75,1.74,7.18.55,2.43,1.08,4.9,1.59,7.4.52,2.5,1,5.07,1.45,7.71h-1.11c.48-2.64.98-5.21,1.5-7.71.51-2.5,1.06-4.96,1.64-7.4.58-2.43,1.18-4.83,1.79-7.18l11.65-44.18h10.44l11.55,44.18c.64,2.35,1.25,4.75,1.81,7.18.56,2.43,1.12,4.9,1.67,7.4.55,2.5,1.06,5.07,1.55,7.71h-1.26c.48-2.64.98-5.21,1.5-7.71.51-2.5,1.06-4.96,1.64-7.4.58-2.43,1.16-4.83,1.74-7.18l11.36-44.18h9.47l-19.72,72.03h-10.68l-12.38-45.63c-.81-2.96-1.58-6.2-2.32-9.69-.74-3.5-1.47-7.53-2.18-12.11h1.93c-.71,4.32-1.4,8.18-2.08,11.58-.68,3.4-1.48,6.81-2.42,10.22l-12.33,45.63h-10.73Z"/>
    <path class="st0" d="M1097.13,494.94v72.03h-9.18v-72.03h9.18Z"/>
    <path class="st0" d="M1116.08,566.96v-72.03h10.83l29.29,46.07c.77,1.19,1.71,2.72,2.8,4.59,1.09,1.87,2.28,3.98,3.55,6.33,1.27,2.35,2.52,4.87,3.75,7.54h-1.3c-.29-2.77-.5-5.42-.63-7.95-.13-2.53-.21-4.86-.24-6.99-.03-2.13-.05-3.93-.05-5.41v-44.18h9.18v72.03h-10.92l-26.1-40.99c-1.19-1.9-2.39-3.86-3.6-5.87-1.21-2.01-2.59-4.4-4.13-7.15-1.55-2.76-3.46-6.16-5.75-10.22h1.69c.16,3.58.31,6.88.43,9.91.13,3.03.23,5.67.31,7.93.08,2.26.12,4.03.12,5.32v41.09h-9.23Z"/>
    <path class="st0" d="M1215.27,568.22c-5.19,0-9.69-.84-13.51-2.51-3.82-1.67-6.81-4.02-8.97-7.03-2.16-3.01-3.38-6.53-3.67-10.56h9.43c.26,2.71,1.18,4.94,2.76,6.7,1.58,1.76,3.6,3.06,6.07,3.92,2.47.85,5.1,1.28,7.9,1.28,3.25,0,6.18-.53,8.77-1.6,2.59-1.06,4.65-2.56,6.16-4.5,1.51-1.93,2.27-4.17,2.27-6.72,0-2.32-.65-4.21-1.96-5.66-1.31-1.45-3.04-2.64-5.2-3.58-2.16-.93-4.53-1.76-7.11-2.46l-8.7-2.47c-5.8-1.64-10.31-4-13.54-7.06-3.22-3.06-4.83-6.98-4.83-11.75,0-4.06,1.09-7.61,3.29-10.66,2.19-3.05,5.16-5.41,8.89-7.08,3.74-1.67,7.93-2.51,12.57-2.51s8.93.84,12.57,2.51c3.64,1.68,6.52,3.96,8.63,6.84,2.11,2.88,3.23,6.15,3.36,9.79h-8.99c-.42-3.51-2.1-6.23-5.03-8.15-2.93-1.92-6.54-2.88-10.83-2.88-3.09,0-5.81.51-8.15,1.52-2.34,1.02-4.15,2.4-5.44,4.16-1.29,1.76-1.93,3.76-1.93,6.02,0,2.51.78,4.54,2.34,6.07,1.56,1.53,3.42,2.72,5.56,3.58,2.14.85,4.08,1.52,5.82,2.01l7.2,1.98c1.93.52,4.07,1.23,6.41,2.13,2.34.9,4.57,2.1,6.69,3.6,2.13,1.5,3.88,3.4,5.25,5.7,1.37,2.3,2.05,5.13,2.05,8.48,0,3.93-1.02,7.48-3.07,10.63-2.05,3.16-5.02,5.66-8.92,7.49-3.9,1.84-8.62,2.75-14.16,2.75Z"/>
  </g>
  <g>
    <polygon class="st3" points="768.08 454.13 14.09 454.13 14.09 9.55 860.93 9.55 768.08 454.13"/>
    <polygon class="st6" points="1649.91 523.76 803.07 523.76 895.92 79.18 1649.91 79.18 1649.91 523.76"/>
    <g>
      <path class="st5" d="M326.47,370.59c-18.2,0-34.41-3.36-48.62-10.08-14.22-6.72-25.46-15.97-33.72-27.74-8.27-11.78-12.64-25.22-13.11-40.32h53.17c.36,6.9,2.47,13,6.33,18.29,3.86,5.29,8.95,9.4,15.26,12.31,6.3,2.92,13.2,4.37,20.7,4.37,8.92,0,16.8-1.99,23.64-5.98,6.84-3.98,12.22-9.55,16.15-16.68,3.93-7.14,5.89-15.4,5.89-24.8s-1.99-17.75-5.98-25.07c-3.99-7.32-9.46-12.99-16.42-17.04-6.96-4.04-15.02-6.07-24.18-6.07-7.97,0-15.61,1.58-22.93,4.73-7.32,3.15-13,7.4-17.04,12.76l-48.89-8.56,12.67-139.53h160.94v44.96h-115.8l-6.78,67.27h1.43c4.76-6.42,11.8-11.71,21.14-15.88,9.34-4.16,19.72-6.25,31.14-6.25,12.01,0,23.11,2.14,33.28,6.42,10.17,4.28,19,10.32,26.5,18.11,7.49,7.79,13.32,17.04,17.49,27.75,4.16,10.71,6.25,22.42,6.25,35.15,0,17.84-4.13,33.66-12.4,47.46-8.27,13.8-19.81,24.65-34.62,32.56-14.81,7.91-31.97,11.87-51.48,11.87Z"/>
      <path class="st5" d="M564.85,370.59c-22.36,0-41.46-5.38-57.28-16.15-15.82-10.76-27.95-26.29-36.4-46.57-8.45-20.28-12.67-44.81-12.67-73.6s4.22-53.2,12.67-73.6c8.44-20.4,20.58-36.01,36.4-46.84,15.82-10.82,34.91-16.24,57.28-16.24s41.48,5.44,57.36,16.33c15.88,10.88,28.04,26.5,36.49,46.84,8.44,20.34,12.67,44.85,12.67,73.51s-4.19,53.32-12.58,73.6c-8.39,20.28-20.52,35.81-36.4,46.57-15.88,10.77-35.06,16.15-57.54,16.15ZM564.85,325.45c10.94,0,20.19-3.57,27.75-10.71,7.55-7.14,13.32-17.49,17.31-31.05,3.98-13.56,5.98-30.03,5.98-49.42s-1.99-36.1-5.98-49.78c-3.99-13.68-9.75-24.09-17.31-31.22-7.55-7.14-16.8-10.71-27.75-10.71s-20.04,3.6-27.66,10.79c-7.61,7.2-13.38,17.61-17.31,31.22-3.92,13.62-5.89,30.18-5.89,49.69s1.96,35.86,5.89,49.42c3.93,13.56,9.69,23.91,17.31,31.05,7.61,7.14,16.83,10.71,27.66,10.71Z"/>
    </g>
    <g>
      <path class="st5" d="M1093.95,440.23c-18.2,0-34.41-3.36-48.62-10.08-14.22-6.72-25.46-15.97-33.72-27.75-8.27-11.78-12.64-25.22-13.11-40.32h53.17c.36,6.9,2.47,13,6.33,18.29,3.86,5.29,8.95,9.4,15.26,12.31,6.3,2.92,13.2,4.37,20.7,4.37,8.92,0,16.8-1.99,23.64-5.98,6.84-3.98,12.22-9.55,16.15-16.68,3.93-7.14,5.89-15.4,5.89-24.8s-1.99-17.75-5.98-25.07c-3.99-7.32-9.46-12.99-16.42-17.04-6.96-4.04-15.02-6.07-24.18-6.07-7.97,0-15.61,1.58-22.93,4.73-7.32,3.15-13,7.4-17.04,12.76l-48.89-8.56,12.67-139.53h160.94v44.96h-115.8l-6.78,67.27h1.43c4.76-6.42,11.8-11.71,21.14-15.88,9.34-4.16,19.72-6.25,31.14-6.25,12.01,0,23.11,2.14,33.28,6.42,10.17,4.28,19,10.32,26.5,18.11,7.49,7.79,13.32,17.04,17.49,27.75,4.16,10.71,6.25,22.42,6.25,35.15,0,17.84-4.13,33.66-12.4,47.46-8.27,13.8-19.81,24.65-34.62,32.56-14.81,7.91-31.97,11.87-51.48,11.87Z"/>
      <path class="st5" d="M1332.33,440.23c-22.36,0-41.46-5.38-57.28-16.15-15.82-10.76-27.95-26.29-36.4-46.57-8.45-20.28-12.67-44.81-12.67-73.6s4.22-53.2,12.67-73.6c8.44-20.4,20.58-36.01,36.4-46.84,15.82-10.82,34.91-16.24,57.28-16.24s41.48,5.44,57.36,16.33c15.88,10.88,28.04,26.5,36.49,46.84,8.44,20.34,12.67,44.85,12.67,73.51s-4.19,53.32-12.58,73.6c-8.39,20.28-20.52,35.81-36.4,46.57-15.88,10.77-35.06,16.15-57.54,16.15ZM1332.33,395.09c10.94,0,20.19-3.57,27.75-10.71,7.55-7.14,13.32-17.49,17.31-31.05,3.98-13.56,5.98-30.03,5.98-49.42s-1.99-36.1-5.98-49.78c-3.99-13.68-9.75-24.09-17.31-31.22-7.55-7.14-16.8-10.71-27.75-10.71s-20.04,3.6-27.66,10.79c-7.61,7.2-13.38,17.61-17.31,31.22-3.92,13.62-5.89,30.18-5.89,49.69s1.96,35.86,5.89,49.42c3.93,13.56,9.69,23.91,17.31,31.05,7.61,7.14,16.83,10.71,27.66,10.71Z"/>
    </g>
    <circle class="st5" cx="14.09" cy="231.84" r="87.25"/>
    <circle class="st5" cx="1649.91" cy="301.47" r="87.25"/>
    <g>
      <path class="st6" d="M473.36,598.1l-29.82-109.43h14.25l17.33,67.13c.93,3.57,1.81,7.21,2.64,10.91.83,3.7,1.64,7.44,2.42,11.24.78,3.79,1.52,7.7,2.2,11.71h-1.69c.73-4.01,1.49-7.92,2.28-11.71.78-3.79,1.62-7.54,2.5-11.24.88-3.7,1.79-7.33,2.72-10.91l17.7-67.13h15.86l17.55,67.13c.98,3.57,1.9,7.21,2.75,10.91.86,3.7,1.7,7.44,2.53,11.24.83,3.79,1.62,7.7,2.35,11.71h-1.91c.73-4.01,1.49-7.92,2.28-11.71.78-3.79,1.62-7.54,2.5-11.24.88-3.7,1.76-7.33,2.64-10.91l17.26-67.13h14.4l-29.97,109.43h-16.23l-18.8-69.33c-1.22-4.5-2.4-9.41-3.53-14.73-1.13-5.31-2.23-11.45-3.3-18.4h2.94c-1.08,6.56-2.13,12.42-3.16,17.59s-2.25,10.34-3.67,15.53l-18.73,69.33h-16.31Z"/>
      <path class="st6" d="M617.46,488.67v109.43h-13.95v-109.43h13.95Z"/>
      <path class="st6" d="M646.25,598.1v-109.43h16.45l44.51,69.99c1.17,1.81,2.59,4.14,4.26,6.98,1.66,2.84,3.46,6.05,5.4,9.62,1.93,3.58,3.83,7.39,5.69,11.46h-1.98c-.44-4.21-.76-8.24-.95-12.08-.2-3.84-.32-7.38-.37-10.61-.05-3.23-.07-5.97-.07-8.23v-67.13h13.95v109.43h-16.6l-39.66-62.28c-1.81-2.89-3.63-5.86-5.47-8.92-1.84-3.06-3.93-6.68-6.28-10.87-2.35-4.19-5.26-9.37-8.74-15.53h2.57c.24,5.43.46,10.45.66,15.06s.36,8.62.48,12.04c.12,3.43.18,6.12.18,8.08v62.43h-14.03Z"/>
    </g>
    <g>
      <path class="st3" d="M867.7,668.01l-29.82-109.43h14.25l17.33,67.13c.93,3.57,1.81,7.21,2.64,10.91.83,3.7,1.64,7.44,2.42,11.24.78,3.79,1.52,7.7,2.2,11.71h-1.69c.73-4.01,1.49-7.92,2.28-11.71.78-3.79,1.62-7.54,2.5-11.24.88-3.7,1.79-7.33,2.72-10.91l17.7-67.13h15.86l17.55,67.13c.98,3.57,1.9,7.21,2.75,10.91.86,3.7,1.7,7.44,2.53,11.24.83,3.79,1.62,7.7,2.35,11.71h-1.91c.73-4.01,1.49-7.92,2.28-11.71.78-3.79,1.62-7.54,2.5-11.24.88-3.7,1.76-7.33,2.64-10.91l17.26-67.13h14.4l-29.97,109.43h-16.23l-18.8-69.33c-1.22-4.5-2.4-9.41-3.53-14.73-1.13-5.31-2.23-11.45-3.3-18.4h2.94c-1.08,6.56-2.13,12.42-3.16,17.59s-2.25,10.34-3.67,15.53l-18.73,69.33h-16.31Z"/>
      <path class="st3" d="M1011.8,558.58v109.43h-13.95v-109.43h13.95Z"/>
      <path class="st3" d="M1040.59,668.01v-109.43h16.45l44.51,69.99c1.17,1.81,2.59,4.14,4.26,6.98,1.66,2.84,3.46,6.05,5.4,9.62,1.93,3.58,3.83,7.39,5.69,11.46h-1.98c-.44-4.21-.76-8.24-.95-12.08-.2-3.84-.32-7.38-.37-10.61-.05-3.23-.07-5.97-.07-8.23v-67.13h13.95v109.43h-16.6l-39.66-62.28c-1.81-2.89-3.63-5.86-5.47-8.92-1.84-3.06-3.93-6.68-6.28-10.87-2.35-4.19-5.26-9.37-8.74-15.53h2.57c.24,5.43.46,10.45.66,15.06s.36,8.62.48,12.04c.12,3.43.18,6.12.18,8.08v62.43h-14.03Z"/>
    </g>
  </g>
</svg>