<?xml version="1.0" encoding="UTF-8"?>
<svg id="Layer_1" xmlns="http://www.w3.org/2000/svg" version="1.1" viewBox="0 0 1639.9 704.53">
  <!-- Generator: Adobe Illustrator 29.7.0, SVG Export Plug-In . SVG Version: 2.1.1 Build 138)  -->
  <defs>
    <style>
      .st0 {
        fill: #40403f;
        font-family: Roboto-Regular, Roboto;
        font-size: 104.54px;
      }

      .st0, .st1 {
        isolation: isolate;
      }

      .st2 {
        fill: #da4526;
      }
    </style>
  </defs>
  <g>
    <path d="M153.32,316.33c-32.34,0-56.7-9-73.07-27s-24.56-43.27-24.56-75.81c0-22.58,4.32-41.64,12.97-57.2,8.64-15.56,20.44-27.35,35.39-35.39,14.95-8.03,31.98-12.05,51.1-12.05,11.18,0,20.08.92,26.7,2.75,6.61,1.83,11.79,3.66,15.56,5.49,3.76,1.83,6.86,2.75,9.31,2.75,2.64,0,4.62-1.02,5.95-3.05,1.32-2.03,3-4.68,5.03-7.93h8.85v69.86h-10.37c-3.46-20.34-10.37-34.88-20.75-43.63-10.37-8.74-23.7-13.12-39.97-13.12-21.56,0-38.29,7.88-50.19,23.64s-17.85,37.17-17.85,64.22c0,31.12,6.25,54.36,18.76,69.71,12.51,15.36,29.64,23.03,51.41,23.03,9.56,0,17.64-1.42,24.25-4.27,6.61-2.85,12.97-6.51,19.07-10.98v-32.95c0-7.32-.61-12.86-1.83-16.63-1.22-3.76-3.77-6.3-7.63-7.63-3.87-1.32-9.66-1.98-17.39-1.98v-9.76h75.36v9.76c-8.54,0-14.14,1.48-16.78,4.42-2.65,2.95-3.97,9.21-3.97,18.76v44.24c-10.98,6.31-22.07,11.34-33.25,15.1-11.19,3.76-25.22,5.64-42.1,5.64h0Z"/>
    <path d="M339.43,312.97h-70.17v-8.85c6.71,0,11.59-.66,14.64-1.98,3.05-1.32,4.93-3.56,5.64-6.71.71-3.15,1.07-7.57,1.07-13.27v-153.15c0-6.3-1.17-10.07-3.51-11.29-2.34-1.22-5.44-1.83-9.31-1.83-2.65,0-5.9.21-9.76.61v-8.24l40.27-10.68h7.63v184.58c0,5.9.46,10.43,1.37,13.58.92,3.16,3,5.34,6.25,6.56s8.54,1.83,15.86,1.83v8.85h.02Z"/>
    <path d="M425.15,316.02c-21.36,0-38.09-6.66-50.19-19.98s-18.15-32.29-18.15-56.9c0-14.84,2.85-27.81,8.54-38.9,5.69-11.08,13.68-19.73,23.95-25.93s22.22-9.31,35.85-9.31c20.95,0,37.47,6.51,49.58,19.53,12.1,13.02,18.15,30.81,18.15,53.39,0,17.08-2.9,31.42-8.69,43.02-5.8,11.59-13.78,20.34-23.95,26.24s-21.87,8.85-35.08,8.85h0ZM426.37,303.82c8.34,0,15.35-1.93,21.05-5.8,5.69-3.86,10.02-10.47,12.97-19.83,2.95-9.35,4.42-22.27,4.42-38.75,0-18.71-3.41-33.86-10.22-45.46-6.82-11.59-17.04-17.39-30.66-17.39-11.59,0-20.95,4.88-28.07,14.64-7.12,9.76-10.68,24.41-10.68,43.93,0,24.21,3.61,41.75,10.83,52.63,7.22,10.88,17.34,16.22,30.36,16.02h0Z"/>
    <path d="M583.8,314.8h-14.03l-45.76-115.02c-2.65-6.3-5.09-11.03-7.32-14.19-2.24-3.15-4.78-5.29-7.63-6.41-2.85-1.12-6.51-1.68-10.98-1.68v-8.85h65.59v8.85c-6.1,0-10.33.66-12.66,1.98-2.34,1.33-3.51,3.2-3.51,5.64,0,2.04.35,3.97,1.07,5.8.71,1.83,1.47,3.87,2.29,6.1l26.54,67.42,5.49,17.7h2.14l6.41-17.7,23.19-58.58,10.07,20.14h-5.19l-35.69,88.78-.02.02ZM667.7,314.8h-14.64l-33.86-93.05-4.27-8.54-4.88-13.42c-2.44-6.71-4.73-11.64-6.86-14.8-2.14-3.15-4.63-5.19-7.47-6.1-2.85-.92-6.51-1.37-10.98-1.37v-8.85h63.76v8.85c-5.7,0-9.66.66-11.9,1.98-2.24,1.33-3.36,3.2-3.36,5.64,0,1.83.25,3.81.76,5.95s1.17,4.32,1.98,6.56l24.71,66.81,5.49,17.7h1.83l6.1-17.7,24.1-68.34c.2-.81.56-2.18,1.07-4.12.51-1.93.76-4.22.76-6.86,0-2.85-1.43-4.83-4.27-5.95-2.85-1.12-7.12-1.68-12.81-1.68v-8.85h52.78v8.85c-5.9,0-10.37,1.37-13.42,4.12s-6.1,8.08-9.15,16.02l-45.46,117.15h-.01Z"/>
    <path d="M810.17,312.97h-68.64v-8.54c6.91,0,11.85-.66,14.8-1.98s4.78-3.61,5.49-6.86c.71-3.25,1.07-7.73,1.07-13.42v-85.12c0-6.51-1.12-10.53-3.36-12.05-2.24-1.53-5.6-2.29-10.07-2.29-2.04,0-4.58.21-7.63.61v-8.85l38.44-8.54h7.93v116.24c0,5.9.41,10.48,1.22,13.73.81,3.26,2.79,5.49,5.95,6.71,3.15,1.22,8.08,1.83,14.8,1.83v8.54h0ZM776,142.13c-5.09,0-9.26-1.73-12.51-5.19-3.26-3.46-4.88-7.52-4.88-12.2s1.57-8.69,4.73-12.05c3.15-3.36,7.37-5.03,12.66-5.03s9.51,1.68,12.66,5.03c3.15,3.36,4.73,7.37,4.73,12.05s-1.58,8.75-4.73,12.2c-3.16,3.46-7.37,5.19-12.66,5.19h0Z"/>
    <path d="M898.34,312.97h-69.87v-8.54c6.91,0,11.85-.66,14.8-1.98s4.78-3.61,5.49-6.86c.71-3.25,1.07-7.73,1.07-13.42v-85.73c0-5.49-1.12-9.1-3.36-10.83s-5.39-2.59-9.46-2.59c-2.65,0-5.39.21-8.24.61v-8.85l38.75-8.85h7.02l-.31,28.07.92,6.41v81.76c0,5.7.4,10.17,1.22,13.42.81,3.26,2.85,5.54,6.1,6.86,3.25,1.33,8.54,1.98,15.87,1.98v8.54ZM988.04,312.97h-70.48v-8.54c7.32,0,12.56-.66,15.71-1.98,3.15-1.32,5.08-3.61,5.8-6.86.71-3.25,1.07-7.73,1.07-13.42v-55.22c0-12.2-1.37-21.36-4.12-27.46s-6.25-10.12-10.53-12.05c-4.27-1.93-8.75-2.9-13.42-2.9-5.9,0-11.19,1.17-15.86,3.51-4.68,2.34-8.9,5.14-12.66,8.39-3.77,3.26-7.27,6.31-10.53,9.15l-2.14-14.95h4.58c8.34-7.32,16.22-13.42,23.64-18.31,7.42-4.88,15.91-7.32,25.47-7.32,13.83,0,24.1,4.68,30.81,14.03,6.71,9.36,10.07,22.78,10.07,40.27v62.85c0,5.7.46,10.17,1.37,13.42.92,3.26,3,5.54,6.25,6.86,3.25,1.33,8.24,1.98,14.95,1.98v8.54h.02Z"/>
    <path d="M1052.72,384.67c-13.22,0-23.64-1.63-31.27-4.88-7.63-3.26-12.97-7.47-16.02-12.66s-4.58-10.53-4.58-16.02c0-5.09,2.08-10.43,6.25-16.02,4.17-5.6,10.32-12.36,18.46-20.29v-3.36l9.15,1.83c-3.87,6.51-6.51,11.85-7.93,16.02-1.42,4.17-2.14,7.98-2.14,11.44,0,8.74,3.76,15.35,11.29,19.83,7.52,4.47,19.01,6.71,34.47,6.71,12,0,21.71-1.53,29.14-4.58,7.42-3.05,12.81-6.82,16.17-11.29,3.36-4.48,5.03-8.85,5.03-13.12,0-5.49-1.78-9.72-5.34-12.66-3.56-2.95-8.08-5.03-13.58-6.25-5.49-1.22-11.29-1.98-17.39-2.29s-11.7-.46-16.78-.46c-9.15-.21-16.07-.31-20.75-.31s-8.04-.05-10.07-.15c-2.04-.1-3.87-.15-5.49-.15l-3.05-1.53c-3.05-1.02-6.1-2.64-9.15-4.88s-5.6-4.93-7.63-8.08c-2.04-3.15-3.05-6.45-3.05-9.92,0-3.66,1.07-7.47,3.2-11.44,2.14-3.97,5.13-7.93,9-11.9,3.86-3.97,8.13-7.78,12.81-11.44v-2.75l7.93,5.8c-1.02,1.02-2.24,2.85-3.66,5.49-1.43,2.65-2.65,5.44-3.66,8.39-1.02,2.95-1.53,5.44-1.53,7.47,0,3.05,1.07,5.44,3.2,7.17,2.14,1.73,5.8,3,10.98,3.81,5.19.82,12.46,1.22,21.81,1.22,12.81,0,24.35.61,34.63,1.83,10.27,1.22,18.35,4.38,24.25,9.46,5.9,5.09,8.85,13.42,8.85,25.02,0,10.17-2.49,18.76-7.47,25.78-4.99,7.02-11.59,12.66-19.83,16.93s-17.29,7.37-27.15,9.3c-9.87,1.93-19.58,2.9-29.14,2.9l.04.03ZM1066.75,265.38c-5.29,0-10.22-.51-14.8-1.53-4.58-1.02-9-2.24-13.27-3.66l-3.36-3.05c-5.29-2.85-9.82-6.2-13.58-10.07-3.77-3.86-6.67-8.49-8.7-13.88-2.04-5.39-3.05-11.54-3.05-18.46,0-10.17,2.34-18.96,7.02-26.39,4.68-7.42,11.18-13.17,19.53-17.24,8.34-4.07,17.9-6.1,28.68-6.1,6.1,0,11.85.56,17.24,1.68s10.42,2.8,15.1,5.03c4.68,2.24,8.74,4.88,12.2,7.93v7.93c2.24,3.05,4.62,7.12,7.17,12.2,2.54,5.09,3.81,11.49,3.81,19.22,0,9.36-2.29,17.54-6.86,24.56s-10.88,12.41-18.92,16.17c-8.04,3.77-17.44,5.64-28.22,5.64v.02ZM1067.06,254.7c7.73,0,14.08-2.64,19.07-7.93,4.98-5.29,7.47-15.15,7.47-29.59,0-12.4-2.65-22.37-7.93-29.9-5.29-7.52-12.81-11.29-22.58-11.29-7.93,0-14.29,3.05-19.07,9.15-4.78,6.1-7.17,15.56-7.17,28.37s2.54,23.14,7.63,30.36c5.08,7.22,12.61,10.83,22.58,10.83h0ZM1138.45,170.5v16.47l-32.95-.92-10.68-13.12,43.63-2.44h0Z"/>
  </g>
  <g>
    <path d="M783.02,584.2h-93.7v-9.79c9.79,0,16.92-.7,21.39-2.12,4.46-1.41,7.29-4.51,8.49-9.31,1.19-4.79,1.8-11.97,1.8-21.55v-128.64c0-8.49-.55-15.18-1.63-20.08-1.09-4.9-3.87-8.33-8.33-10.28-4.46-1.96-11.7-2.94-21.71-2.94v-9.79h93.7v9.79c-10.23,0-17.63.98-22.2,2.94s-7.35,5.39-8.33,10.28-1.47,11.59-1.47,20.08v54.85h107.09v-54.85c0-8.49-.55-15.18-1.63-20.08-1.09-4.9-3.87-8.33-8.33-10.28-4.46-1.96-11.7-2.94-21.71-2.94v-9.79h93.38v9.79c-10.23,0-17.63.98-22.2,2.94s-7.35,5.34-8.33,10.12c-.98,4.79-1.47,11.54-1.47,20.24v128.64c0,9.36.6,16.44,1.8,21.22,1.19,4.79,4.08,7.95,8.65,9.47,4.57,1.53,11.75,2.29,21.55,2.29v9.79h-93.38v-9.79c9.79,0,16.92-.76,21.39-2.29,4.46-1.52,7.29-4.68,8.49-9.47,1.19-4.79,1.79-11.86,1.79-21.22v-61.05h-107.09v61.05c0,9.58.6,16.71,1.8,21.39,1.19,4.68,4.08,7.79,8.65,9.31,4.57,1.53,11.75,2.29,21.55,2.29v9.79h-.01Z"/>
    <path d="M1011.9,587.47c-13.06,0-24.87-3.1-35.42-9.3-10.56-6.2-18.89-15.35-24.98-27.43-6.1-12.08-9.14-26.82-9.14-44.24,0-18.28,3.1-33.35,9.31-45.22,6.2-11.86,14.53-20.73,24.98-26.61,10.45-5.88,21.98-8.82,34.61-8.82,17.84,0,32.21,6.2,43.1,18.61,10.88,12.41,16.76,30.04,17.63,52.89h-106.11l-.33-12.08h75.75c-.22-8.05-1.63-15.62-4.24-22.69s-6.42-12.78-11.43-17.14c-5.01-4.35-11.43-6.53-19.26-6.53-12.63,0-22.09,4.95-28.41,14.86-6.32,9.91-9.47,23.89-9.47,41.96,0,15.02,2.39,27.54,7.18,37.55s11.1,17.47,18.94,22.37,16.21,7.35,25.14,7.35,16.16-1.19,21.71-3.59c5.55-2.39,10.28-5.5,14.2-9.31,3.92-3.81,7.62-8,11.1-12.57l6.2,4.57c-2.83,6.1-6.1,11.92-9.79,17.47-3.7,5.55-7.89,10.4-12.57,14.53-4.68,4.14-10.18,7.4-16.49,9.79-6.32,2.39-13.71,3.59-22.2,3.59h0Z"/>
    <path d="M1134.01,586.49c-12.63,0-22.26-3.48-28.89-10.45-6.64-6.96-9.96-15.67-9.96-26.12,0-8.7,2.01-16.05,6.04-22.04,4.03-5.98,9.36-11.04,16-15.18,6.64-4.13,13.82-7.62,21.55-10.45,7.72-2.83,15.29-5.22,22.69-7.18,7.4-1.96,13.93-3.81,19.59-5.55v-14.37c0-14.15-2.45-24.21-7.35-30.2-4.9-5.98-12.24-8.98-22.04-8.98s-15.34,1.96-17.96,5.88-3.92,10.77-3.92,20.57c0,5.01-1.25,8.76-3.75,11.26s-6.04,3.75-10.61,3.75c-3.26,0-6.37-1.25-9.3-3.75-2.94-2.5-4.41-6.47-4.41-11.92,0-6.09,2.34-11.86,7.02-17.3s11.31-9.9,19.92-13.39c8.6-3.48,18.77-5.22,30.53-5.22,17.84,0,30.47,4.14,37.87,12.41s11.1,20.9,11.1,37.87v74.11c0,6.75.76,11.1,2.29,13.06,1.52,1.96,4.03,2.94,7.51,2.94,3.05,0,5.82-.76,8.33-2.29,2.5-1.52,4.84-3.48,7.02-5.88l4.9,5.22c-5.44,7.84-10.61,13.55-15.51,17.14s-11.48,5.39-19.75,5.39c-7.62,0-12.57-2.17-14.86-6.53-2.29-4.35-3.97-10.55-5.06-18.61l-1.96-3.92v-56.48c-9.79,2.4-19.05,5.22-27.75,8.49-8.71,3.26-15.78,7.51-21.22,12.73s-8.16,12.08-8.16,20.57,2.17,14.48,6.53,19.26c4.35,4.79,10.01,7.18,16.98,7.18,5.66,0,11.59-1.41,17.79-4.24,6.2-2.83,12.24-6.86,18.12-12.08l2.61,11.75h-3.92c-5.01,4.36-9.85,8.28-14.53,11.75-4.68,3.48-9.69,6.15-15.02,8-5.34,1.85-11.48,2.78-18.45,2.78v.02Z"/>
    <path d="M1330.56,584.2h-81.62v-9.47c7.18,0,12.46-.6,15.83-1.8,3.37-1.19,5.55-3.37,6.53-6.53.98-3.15,1.47-7.78,1.47-13.88v-89.79c0-5.88-.49-10.29-1.47-13.22s-4.41-4.41-10.29-4.41c-3.26,0-6.64.22-10.12.65v-9.14l40.49-9.79h7.84v33.63h.98c5.66-8.05,10.66-14.69,15.02-19.92,4.35-5.22,8.65-9.14,12.9-11.75,4.24-2.61,8.98-3.92,14.2-3.92,6.31,0,11.04,1.63,14.2,4.9,3.15,3.27,4.73,7.73,4.73,13.39,0,6.1-1.47,10.56-4.41,13.39-2.94,2.83-6.26,4.24-9.96,4.24-3.48,0-6.59-.92-9.31-2.78-2.72-1.85-5.06-3.7-7.02-5.55-1.96-1.85-3.59-2.77-4.9-2.77-3.7,0-7.95,2.83-12.73,8.49-4.79,5.66-9.14,11.75-13.06,18.28v74.44c0,6.75.87,11.87,2.61,15.35s4.84,5.77,9.31,6.86c4.46,1.09,10.72,1.63,18.77,1.63v9.47h.01Z"/>
    <path d="M1459.2,554.82l6.2,5.22c-4.14,5.88-8,10.83-11.59,14.86-3.59,4.03-7.57,7.13-11.92,9.31-4.36,2.17-10.01,3.26-16.98,3.26-10.89,0-18.83-3.21-23.83-9.63-5.01-6.42-7.51-16.92-7.51-31.51v-101.21h-17.96v-7.51c7.62-4.79,14.2-11.26,19.75-19.43,5.55-8.16,11.26-19.21,17.14-33.14h8.16v46.36h36.89v13.71h-36.89v92.07c0,11.54,1.03,19.59,3.1,24.16,2.07,4.57,6.25,6.86,12.57,6.86,5.22,0,9.31-1.09,12.24-3.27,2.94-2.17,6.47-5.55,10.61-10.12h.02Z"/>
    <path d="M1480.1,586.82l-.98-56.16h8.49c3.48,16.76,8.6,28.46,15.34,35.1,6.74,6.64,16.11,9.96,28.08,9.96,8.27,0,15.02-1.68,20.24-5.06,5.22-3.37,7.84-8.87,7.84-16.49,0-5.22-.93-9.58-2.78-13.06s-5.39-7.02-10.61-10.61-12.95-7.89-23.18-12.9c-10.01-5-18.18-9.85-24.49-14.53-6.32-4.68-10.99-9.85-14.04-15.51-3.05-5.66-4.57-12.51-4.57-20.57,0-13.49,4.84-23.72,14.53-30.69,9.68-6.96,21.49-10.45,35.42-10.45,8.27,0,15.02.93,20.24,2.78s9.9,3.75,14.04,5.71h.33l5.55-6.86h6.53l.98,49.95h-8.82c-3.48-15.45-8.38-26.06-14.69-31.83-6.32-5.76-14.48-8.65-24.49-8.65-7.4,0-13.66,1.74-18.77,5.22-5.12,3.48-7.67,8.93-7.67,16.33,0,6.32,2.94,11.97,8.82,16.98s15.67,10.99,29.38,17.96c10.01,5.22,18.39,10.29,25.14,15.18,6.74,4.9,11.86,10.23,15.34,16s5.22,12.68,5.22,20.73c0,10.23-2.5,18.45-7.51,24.65s-11.7,10.72-20.08,13.55-17.47,4.25-27.26,4.25-16.81-.98-22.37-2.94-10.5-3.81-14.86-5.55h-.65l-6.86,7.51h-6.86.03Z"/>
  </g>
  <g class="st1">
    <text class="st0" transform="translate(688.96 701.9)"><tspan x="0" y="0">FUNDRAISING</tspan></text>
  </g>
  <path class="st2" d="M1188.61,115.5c13.09-16.23,22.56-32.03,41.02-43.04,44.09-26.27,99.63-9.3,122.69,35.73,44.61,87.13-65.83,190.65-126.71,240.54-5.07,4.15-30.66,25.41-34.33,25.29-3.51-.73-6.16-3.39-8.98-5.4-3.56-2.54-27.27-22.93-27.78-24.73-1.51-5.22,1.22-9.61,6.94-6.87,5.23,2.5,27.86,26.17,29.84,26.16,45.21-37.24,92.27-74.82,126.39-123.1,32.34-45.77,56.39-111.57,3.78-153.47-43.51-34.64-90.56-12.93-118.82,27.58-5.81,8.34-8.85,24.98-18.46,12.04-11.58-15.59-15.37-28.24-32.98-41.16-42.2-30.95-103.18-10.67-117.33,39.38-1.69,5.99,1.36,14.71-6.92,16.26-11.76-1.98,2.16-32.89,5.8-39.07,37.26-63.19,127.86-50.28,155.85,13.86h0Z"/>
  <path class="st2" d="M1320.14,55.41c-.32,0-.64-.05-.96-.15-1.65-.53-2.56-2.3-2.03-3.95l14.93-46.46c.53-1.65,2.3-2.56,3.95-2.03,1.65.53,2.56,2.3,2.03,3.95l-14.93,46.46c-.43,1.33-1.66,2.18-2.99,2.18Z"/>
  <path class="st2" d="M1406.61,227.08c-.59,0-1.18-.16-1.71-.51l-33.37-21.73c-1.45-.95-1.87-2.89-.92-4.35.95-1.45,2.89-1.86,4.35-.92l33.37,21.73c1.45.95,1.87,2.89.92,4.35-.6.92-1.61,1.43-2.63,1.43h-.01Z"/>
  <path class="st2" d="M1373.24,113.87c-1.33,0-2.57-.86-3-2.2-.52-1.65.4-3.42,2.05-3.94l44.29-13.93c1.65-.52,3.42.4,3.94,2.05.52,1.65-.4,3.42-2.05,3.94l-44.29,13.93c-.31.1-.63.15-.94.15h0Z"/>
  <path class="st2" d="M1357.16,76.88c-.8,0-1.61-.31-2.22-.92-1.23-1.23-1.23-3.22,0-4.44l36.27-36.27c1.23-1.23,3.21-1.23,4.44,0s1.23,3.22,0,4.44l-36.27,36.27c-.61.61-1.42.92-2.22.92Z"/>
  <path class="st2" d="M1420.46,171.64c-.34,0-.68-.06-1.02-.17l-39.99-13.77c-1.64-.56-2.51-2.35-1.95-3.99s2.35-2.51,3.99-1.95l39.99,13.77c1.64.56,2.51,2.35,1.95,3.99-.45,1.3-1.67,2.12-2.97,2.12Z"/>
</svg>